<svg id="icon-cart" viewBox="0 0 576 512" xmlns="http://www.w3.org/2000/svg">
    <path d="M111.064 36.2829C112.718 39.7743 116.236 42 120.1 42H531.1C550.838 42 565.215 60.7642 560.05 79.7785L560.044 79.8005L519.047 232.087C511.722 259.148 487.162 278 459.2 278H170.7C167.722 278 164.899 279.327 162.999 281.621C161.099 283.915 160.32 286.935 160.875 289.862L166.275 318.362L166.284 318.411C169.393 334.381 183.385 346 199.7 346H488C495.777 346 502 352.223 502 360C502 367.777 495.777 374 488 374H199.7C169.895 374 144.332 352.809 138.826 323.645L138.824 323.63L87.2345 52.6884C87.2325 52.6771 87.2304 52.6658 87.2283 52.6545C85.6201 44.0154 78.0972 38 69.5 38H24C16.2228 38 10 31.7772 10 24C10 16.2228 16.2228 10 24 10H69.5C87.5646 10 103.587 20.5089 111.064 36.2829ZM138 464C138 459.01 138.983 454.068 140.893 449.458C142.802 444.848 145.601 440.659 149.13 437.13C152.659 433.601 156.848 430.802 161.458 428.893C166.068 426.983 171.01 426 176 426C180.99 426 185.932 426.983 190.542 428.893C195.152 430.802 199.341 433.601 202.87 437.13C206.399 440.659 209.198 444.848 211.107 449.458C213.017 454.068 214 459.01 214 464C214 468.99 213.017 473.932 211.107 478.542C209.198 483.152 206.399 487.341 202.87 490.87C199.341 494.399 195.152 497.198 190.542 499.107C185.932 501.017 180.99 502 176 502C171.01 502 166.068 501.017 161.458 499.107C156.848 497.198 152.659 494.399 149.13 490.87C145.601 487.341 142.802 483.152 140.893 478.542C138.983 473.932 138 468.99 138 464ZM464 426C474.078 426 483.744 430.004 490.87 437.13C497.996 444.256 502 453.922 502 464C502 474.078 497.996 483.744 490.87 490.87C483.744 497.996 474.078 502 464 502C453.922 502 444.256 497.996 437.13 490.87C430.004 483.744 426 474.078 426 464C426 453.922 430.004 444.256 437.13 437.13C444.256 430.004 453.922 426 464 426Z" stroke-width="20" stroke-linejoin="round"/>
</svg>
    