<svg id="icon-dollar-sign" viewBox="0 0 512 512" xmlns="http://www.w3.org/2000/svg">
    <path
        d="M256 0C273.7 0 288 14.3 288 32V67.7C289.6 67.9 291.1 68.1 292.7 68.4C293.1 68.5 293.4 68.5 293.8 68.6L341.8 77.4C359.2 80.6 370.7 97.3 367.5 114.6C364.3 131.9 347.6 143.5 330.3 140.3L282.8 131.6C251.5 127 223.9 130.1 204.5 137.8C185.1 145.5 177.3 156.1 175.5 165.9C173.5 176.6 175 182.6 176.7 186.3C178.5 190.2 182.2 194.6 189.5 199.5C205.8 210.2 230.8 217.2 263.2 225.8L266.1 226.6C294.7 234.2 329.7 243.4 355.7 260.4C369.9 269.7 383.3 282.3 391.6 299.9C400.1 317.8 401.9 337.8 398 359.1C391.1 397.1 364.9 422.5 332.4 435.8C318.7 441.4 303.8 445 288 446.8V480C288 497.7 273.7 512 256 512C238.3 512 224 497.7 224 480V445.1C223.6 445 223.1 445 222.7 444.9H222.5C198.1 441.1 158 430.6 131 418.6C114.9 411.4 107.6 392.5 114.8 376.4C122 360.3 140.9 353 157 360.2C177.9 369.5 212.3 378.7 232.2 381.8C264.1 386.5 290.4 383.8 308.2 376.5C325.1 369.6 332.8 359.6 335 347.6C336.9 337 335.4 330.9 333.7 327.2C331.8 323.2 328.1 318.8 320.7 313.9C304.3 303.2 279.2 296.2 246.7 287.6L243.9 286.9C215.4 279.3 180.4 270 154.4 253C140.2 243.7 126.9 231 118.6 213.4C110.2 195.5 108.5 175.5 112.5 154.2C119.7 116 148.3 91.2 180.8 78.3C194.1 73 208.7 69.4 224 67.3V32C224 14.3 238.3 0 256 0Z" />
</svg>