<svg xmlns="http://www.w3.org/2000/svg" id="icon-store" viewBox="0 0 576 512">
    <path d="M539.146 109.141C539.367 109.492 539.609 109.827 539.869 110.143C565.129 151.509 541.333 206.984 494.318 213.282C490.66 213.738 487.095 214 483.5 214C460.398 214 439.929 203.926 425.699 188.273C423.8 186.185 421.107 184.996 418.284 185C415.461 185.004 412.772 186.202 410.879 188.296C396.766 203.919 376.312 214 353.1 214C329.981 214 309.429 203.914 295.32 188.296C293.424 186.198 290.728 185 287.9 185C285.071 185 282.375 186.198 280.479 188.296C266.37 203.914 245.818 214 222.7 214C199.581 214 179.029 203.914 164.92 188.296C163.024 186.198 160.328 185 157.5 185C154.671 185 151.975 186.198 150.079 188.296C135.97 203.914 115.418 214 92.2997 214C88.8031 214 85.1421 213.738 81.4934 213.284C34.3054 206.846 10.5802 150.527 36.7498 109.148C36.7502 109.147 36.7507 109.146 36.7512 109.145L94.1497 18.4476L94.1621 18.4281C97.4089 13.2713 103.294 10 109.6 10H466.4C472.706 10 478.591 13.2713 481.837 18.4281L481.846 18.441L539.146 109.141ZM483.4 266C489.238 266 494.937 265.586 500.489 264.869C500.611 264.859 500.733 264.847 500.855 264.833C501.239 264.788 501.62 264.742 502 264.693V384V448C502 477.777 477.777 502 448 502H128C98.2226 502 73.9997 477.777 73.9997 448V384V264.713C74.184 264.741 74.368 264.768 74.5518 264.795C74.7708 264.827 74.9908 264.851 75.2114 264.869C80.7758 265.587 86.5694 266 92.3997 266C101.15 266 109.723 265.126 118 263.465V384C118 389.523 122.477 394 128 394H448C453.523 394 458 389.523 458 384V263.512C466.178 265.131 474.675 266 483.4 266Z" stroke-width="20" stroke-linejoin="round"/>
</svg>